<?xml version="1.0" encoding="utf-8" standalone="no"?>
<!DOCTYPE svg PUBLIC "-//W3C//DTD SVG 1.1//EN"
  "http://www.w3.org/Graphics/SVG/1.1/DTD/svg11.dtd">
<svg xmlns:xlink="http://www.w3.org/1999/xlink" width="823.5pt" height="195.838125pt" viewBox="0 0 823.5 195.838125" xmlns="http://www.w3.org/2000/svg" version="1.1">
 <metadata>
  <rdf:RDF xmlns:dc="http://purl.org/dc/elements/1.1/" xmlns:cc="http://creativecommons.org/ns#" xmlns:rdf="http://www.w3.org/1999/02/22-rdf-syntax-ns#">
   <cc:Work>
    <dc:type rdf:resource="http://purl.org/dc/dcmitype/StillImage"/>
    <dc:date>2025-12-04T17:05:39.041570</dc:date>
    <dc:format>image/svg+xml</dc:format>
    <dc:creator>
     <cc:Agent>
      <dc:title>Matplotlib v3.10.6, https://matplotlib.org/</dc:title>
     </cc:Agent>
    </dc:creator>
   </cc:Work>
  </rdf:RDF>
 </metadata>
 <defs>
  <style type="text/css">*{stroke-linejoin: round; stroke-linecap: butt}</style>
 </defs>
 <g id="figure_1">
  <g id="patch_1">
   <path d="M 0 195.838125 
L 823.5 195.838125 
L 823.5 0 
L 0 0 
z
" style="fill: #ffffff"/>
  </g>
  <g id="axes_1">
   <g id="FillBetweenPolyCollection_1">
    <defs>
     <path id="m8731643c2f" d="M 119.032931 -14.76 
L 119.032931 -39.96 
L 134.044063 -39.96 
L 149.055195 -39.96 
L 164.066327 -39.96 
L 179.077458 -39.96 
L 194.08859 -39.96 
L 209.099722 -39.96 
L 224.110853 -39.96 
L 239.121985 -39.96 
L 254.133117 -39.96 
L 269.144249 -39.96 
L 284.15538 -39.96 
L 299.166512 -39.96 
L 314.177644 -39.96 
L 329.188776 -48.36 
L 344.199907 -56.76 
L 359.211039 -65.16 
L 374.222171 -73.56 
L 389.233302 -81.96 
L 404.244434 -81.96 
L 419.255566 -81.96 
L 434.266698 -81.96 
L 449.277829 -81.96 
L 464.288961 -81.96 
L 479.300093 -81.96 
L 494.311224 -73.56 
L 509.322356 -65.16 
L 524.333488 -56.76 
L 539.34462 -48.36 
L 554.355751 -39.96 
L 569.366883 -39.96 
L 584.378015 -39.96 
L 599.389147 -39.96 
L 614.400278 -39.96 
L 629.41141 -39.96 
L 644.422542 -39.96 
L 659.433673 -39.96 
L 674.444805 -39.96 
L 689.455937 -39.96 
L 704.467069 -39.96 
L 719.4782 -39.96 
L 734.489332 -39.96 
L 749.500464 -39.96 
L 764.511596 -39.96 
L 779.522727 -39.96 
L 779.522727 -14.76 
L 779.522727 -14.76 
L 764.511596 -14.76 
L 749.500464 -14.76 
L 734.489332 -14.76 
L 719.4782 -14.76 
L 704.467069 -14.76 
L 689.455937 -14.76 
L 674.444805 -14.76 
L 659.433673 -14.76 
L 644.422542 -14.76 
L 629.41141 -14.76 
L 614.400278 -14.76 
L 599.389147 -14.76 
L 584.378015 -14.76 
L 569.366883 -14.76 
L 554.355751 -14.76 
L 539.34462 -14.76 
L 524.333488 -14.76 
L 509.322356 -14.76 
L 494.311224 -14.76 
L 479.300093 -14.76 
L 464.288961 -14.76 
L 449.277829 -14.76 
L 434.266698 -14.76 
L 419.255566 -14.76 
L 404.244434 -14.76 
L 389.233302 -14.76 
L 374.222171 -14.76 
L 359.211039 -14.76 
L 344.199907 -14.76 
L 329.188776 -14.76 
L 314.177644 -14.76 
L 299.166512 -14.76 
L 284.15538 -14.76 
L 269.144249 -14.76 
L 254.133117 -14.76 
L 239.121985 -14.76 
L 224.110853 -14.76 
L 209.099722 -14.76 
L 194.08859 -14.76 
L 179.077458 -14.76 
L 164.066327 -14.76 
L 149.055195 -14.76 
L 134.044063 -14.76 
L 119.032931 -14.76 
z
" style="stroke: #ffc0cb"/>
    </defs>
    <g clip-path="url(#pa1b80bb636)">
     <use xlink:href="#m8731643c2f" x="0" y="195.838125" style="fill: #ffc0cb; stroke: #ffc0cb"/>
    </g>
   </g>
   <g id="FillBetweenPolyCollection_2">
    <defs>
     <path id="m8f65a37519" d="M 43.977273 -14.76 
L 43.977273 -165.96 
L 58.988404 -165.96 
L 73.999536 -165.96 
L 89.010668 -165.96 
L 104.0218 -165.96 
L 119.032931 -165.96 
L 119.032931 -14.76 
L 119.032931 -14.76 
L 104.0218 -14.76 
L 89.010668 -14.76 
L 73.999536 -14.76 
L 58.988404 -14.76 
L 43.977273 -14.76 
z
" style="stroke: #ffc0cb"/>
    </defs>
    <g clip-path="url(#pa1b80bb636)">
     <use xlink:href="#m8f65a37519" x="0" y="195.838125" style="fill: #ffc0cb; stroke: #ffc0cb"/>
    </g>
   </g>
   <g id="FillBetweenPolyCollection_3">
    <defs>
     <path id="md3afd2d2f0" d="M 119.032931 -39.96 
L 119.032931 -130.646752 
L 134.044063 -130.15779 
L 149.055195 -129.452121 
L 164.066327 -128.541332 
L 179.077458 -127.440377 
L 194.08859 -126.167335 
L 209.099722 -124.743109 
L 224.110853 -123.191084 
L 239.121985 -121.536745 
L 254.133117 -119.807256 
L 269.144249 -118.031016 
L 284.15538 -116.237189 
L 299.166512 -114.45523 
L 314.177644 -112.7144 
L 329.188776 -111.043283 
L 344.199907 -109.469318 
L 359.211039 -108.018349 
L 374.222171 -106.714203 
L 389.233302 -105.578292 
L 404.244434 -104.629268 
L 419.255566 -103.882715 
L 434.266698 -103.35089 
L 449.277829 -103.042527 
L 464.288961 -102.962688 
L 479.300093 -103.112684 
L 494.311224 -103.490053 
L 509.322356 -104.088599 
L 524.333488 -104.898492 
L 539.34462 -105.906435 
L 554.355751 -107.095877 
L 569.366883 -108.447288 
L 584.378015 -109.938477 
L 599.389147 -111.544959 
L 614.400278 -113.240357 
L 629.41141 -114.996831 
L 644.422542 -116.785539 
L 659.433673 -118.577113 
L 674.444805 -120.342134 
L 689.455937 -122.05162 
L 704.467069 -123.677502 
L 719.4782 -125.193082 
L 734.489332 -126.573476 
L 749.500464 -127.796016 
L 764.511596 -128.84063 
L 779.522727 -129.690164 
L 779.522727 -39.96 
L 779.522727 -39.96 
L 764.511596 -39.96 
L 749.500464 -39.96 
L 734.489332 -39.96 
L 719.4782 -39.96 
L 704.467069 -39.96 
L 689.455937 -39.96 
L 674.444805 -39.96 
L 659.433673 -39.96 
L 644.422542 -39.96 
L 629.41141 -39.96 
L 614.400278 -39.96 
L 599.389147 -39.96 
L 584.378015 -39.96 
L 569.366883 -39.96 
L 554.355751 -39.96 
L 539.34462 -48.36 
L 524.333488 -56.76 
L 509.322356 -65.16 
L 494.311224 -73.56 
L 479.300093 -81.96 
L 464.288961 -81.96 
L 449.277829 -81.96 
L 434.266698 -81.96 
L 419.255566 -81.96 
L 404.244434 -81.96 
L 389.233302 -81.96 
L 374.222171 -73.56 
L 359.211039 -65.16 
L 344.199907 -56.76 
L 329.188776 -48.36 
L 314.177644 -39.96 
L 299.166512 -39.96 
L 284.15538 -39.96 
L 269.144249 -39.96 
L 254.133117 -39.96 
L 239.121985 -39.96 
L 224.110853 -39.96 
L 209.099722 -39.96 
L 194.08859 -39.96 
L 179.077458 -39.96 
L 164.066327 -39.96 
L 149.055195 -39.96 
L 134.044063 -39.96 
L 119.032931 -39.96 
z
" style="stroke: #0000ff; stroke-opacity: 0.1"/>
    </defs>
    <g clip-path="url(#pa1b80bb636)">
     <use xlink:href="#md3afd2d2f0" x="0" y="195.838125" style="fill: #0000ff; fill-opacity: 0.1; stroke: #0000ff; stroke-opacity: 0.1"/>
    </g>
   </g>
   <g id="patch_2">
    <path d="M 472.690968 155.002246 
Q 472.690968 136.277945 472.690968 117.553644 
" style="fill: none; stroke: #000000; stroke-width: 1.5; stroke-linecap: round"/>
    <path d="M 474.690968 151.002246 
L 472.690968 155.002246 
L 470.690968 151.002246 
" style="fill: none; stroke: #000000; stroke-width: 1.5; stroke-linecap: round"/>
    <path d="M 470.690968 121.553644 
L 472.690968 117.553644 
L 474.690968 121.553644 
" style="fill: none; stroke: #000000; stroke-width: 1.5; stroke-linecap: round"/>
   </g>
   <g id="text_1">
    <!-- $h \approx 0.06\;\mathrm{m}$ -->
    <g transform="translate(478.544253 139.0375) scale(0.1 -0.1)">
     <defs>
      <path id="DejaVuSans-Oblique-68" d="M 3566 2113 
L 3156 0 
L 2578 0 
L 2988 2091 
Q 3016 2238 3031 2350 
Q 3047 2463 3047 2528 
Q 3047 2791 2881 2937 
Q 2716 3084 2419 3084 
Q 1956 3084 1617 2771 
Q 1278 2459 1178 1941 
L 800 0 
L 225 0 
L 1172 4863 
L 1747 4863 
L 1375 2950 
Q 1594 3244 1934 3414 
Q 2275 3584 2650 3584 
Q 3113 3584 3367 3334 
Q 3622 3084 3622 2631 
Q 3622 2519 3608 2391 
Q 3594 2263 3566 2113 
z
" transform="scale(0.015625)"/>
      <path id="DejaVuSans-2248" d="M 4684 1947 
L 4684 1388 
Q 4356 1144 4076 1036 
Q 3797 928 3494 928 
Q 3150 928 2694 1113 
Q 2663 1125 2641 1134 
Q 2622 1141 2575 1159 
Q 2091 1350 1797 1350 
Q 1522 1350 1253 1231 
Q 984 1113 678 850 
L 678 1409 
Q 1006 1653 1286 1761 
Q 1566 1869 1869 1869 
Q 2213 1869 2672 1684 
Q 2706 1669 2722 1663 
Q 2741 1656 2788 1638 
Q 3272 1447 3566 1447 
Q 3834 1447 4098 1564 
Q 4363 1681 4684 1947 
z
M 4684 3163 
L 4684 2606 
Q 4356 2359 4076 2251 
Q 3797 2144 3494 2144 
Q 3150 2144 2694 2328 
Q 2663 2341 2641 2350 
Q 2622 2356 2575 2375 
Q 2091 2566 1797 2566 
Q 1522 2566 1253 2447 
Q 984 2328 678 2069 
L 678 2625 
Q 1006 2869 1286 2976 
Q 1566 3084 1869 3084 
Q 2213 3084 2672 2900 
Q 2703 2888 2719 2881 
Q 2741 2872 2788 2853 
Q 3272 2663 3566 2663 
Q 3834 2663 4098 2780 
Q 4363 2897 4684 3163 
z
" transform="scale(0.015625)"/>
      <path id="DejaVuSans-30" d="M 2034 4250 
Q 1547 4250 1301 3770 
Q 1056 3291 1056 2328 
Q 1056 1369 1301 889 
Q 1547 409 2034 409 
Q 2525 409 2770 889 
Q 3016 1369 3016 2328 
Q 3016 3291 2770 3770 
Q 2525 4250 2034 4250 
z
M 2034 4750 
Q 2819 4750 3233 4129 
Q 3647 3509 3647 2328 
Q 3647 1150 3233 529 
Q 2819 -91 2034 -91 
Q 1250 -91 836 529 
Q 422 1150 422 2328 
Q 422 3509 836 4129 
Q 1250 4750 2034 4750 
z
" transform="scale(0.015625)"/>
      <path id="DejaVuSans-2e" d="M 684 794 
L 1344 794 
L 1344 0 
L 684 0 
L 684 794 
z
" transform="scale(0.015625)"/>
      <path id="DejaVuSans-36" d="M 2113 2584 
Q 1688 2584 1439 2293 
Q 1191 2003 1191 1497 
Q 1191 994 1439 701 
Q 1688 409 2113 409 
Q 2538 409 2786 701 
Q 3034 994 3034 1497 
Q 3034 2003 2786 2293 
Q 2538 2584 2113 2584 
z
M 3366 4563 
L 3366 3988 
Q 3128 4100 2886 4159 
Q 2644 4219 2406 4219 
Q 1781 4219 1451 3797 
Q 1122 3375 1075 2522 
Q 1259 2794 1537 2939 
Q 1816 3084 2150 3084 
Q 2853 3084 3261 2657 
Q 3669 2231 3669 1497 
Q 3669 778 3244 343 
Q 2819 -91 2113 -91 
Q 1303 -91 875 529 
Q 447 1150 447 2328 
Q 447 3434 972 4092 
Q 1497 4750 2381 4750 
Q 2619 4750 2861 4703 
Q 3103 4656 3366 4563 
z
" transform="scale(0.015625)"/>
      <path id="DejaVuSans-6d" d="M 3328 2828 
Q 3544 3216 3844 3400 
Q 4144 3584 4550 3584 
Q 5097 3584 5394 3201 
Q 5691 2819 5691 2113 
L 5691 0 
L 5113 0 
L 5113 2094 
Q 5113 2597 4934 2840 
Q 4756 3084 4391 3084 
Q 3944 3084 3684 2787 
Q 3425 2491 3425 1978 
L 3425 0 
L 2847 0 
L 2847 2094 
Q 2847 2600 2669 2842 
Q 2491 3084 2119 3084 
Q 1678 3084 1418 2786 
Q 1159 2488 1159 1978 
L 1159 0 
L 581 0 
L 581 3500 
L 1159 3500 
L 1159 2956 
Q 1356 3278 1631 3431 
Q 1906 3584 2284 3584 
Q 2666 3584 2933 3390 
Q 3200 3197 3328 2828 
z
" transform="scale(0.015625)"/>
     </defs>
     <use xlink:href="#DejaVuSans-Oblique-68" transform="translate(0 0.015625)"/>
     <use xlink:href="#DejaVuSans-2248" transform="translate(82.861328 0.015625)"/>
     <use xlink:href="#DejaVuSans-30" transform="translate(186.132812 0.015625)"/>
     <use xlink:href="#DejaVuSans-2e" transform="translate(249.755859 0.015625)"/>
     <use xlink:href="#DejaVuSans-30" transform="translate(281.542969 0.015625)"/>
     <use xlink:href="#DejaVuSans-36" transform="translate(345.166016 0.015625)"/>
     <use xlink:href="#DejaVuSans-6d" transform="translate(435.848198 0.015625)"/>
    </g>
   </g>
   <g id="patch_3">
    <path d="M 475.624795 112.478125 
Q 434.26872 112.478125 392.912644 112.478125 
" style="fill: none; stroke: #000000; stroke-width: 1.5; stroke-linecap: round"/>
    <path d="M 471.624795 110.478125 
L 475.624795 112.478125 
L 471.624795 114.478125 
" style="fill: none; stroke: #000000; stroke-width: 1.5; stroke-linecap: round"/>
    <path d="M 396.912644 114.478125 
L 392.912644 112.478125 
L 396.912644 110.478125 
" style="fill: none; stroke: #000000; stroke-width: 1.5; stroke-linecap: round"/>
   </g>
   <g id="text_2">
    <!-- $0.07\;\mathrm{m}$ górna podstawa -->
    <g transform="translate(375.016698 108.278125) scale(0.1 -0.1)">
     <defs>
      <path id="DejaVuSans-37" d="M 525 4666 
L 3525 4666 
L 3525 4397 
L 1831 0 
L 1172 0 
L 2766 4134 
L 525 4134 
L 525 4666 
z
" transform="scale(0.015625)"/>
      <path id="DejaVuSans-20" transform="scale(0.015625)"/>
      <path id="DejaVuSans-67" d="M 2906 1791 
Q 2906 2416 2648 2759 
Q 2391 3103 1925 3103 
Q 1463 3103 1205 2759 
Q 947 2416 947 1791 
Q 947 1169 1205 825 
Q 1463 481 1925 481 
Q 2391 481 2648 825 
Q 2906 1169 2906 1791 
z
M 3481 434 
Q 3481 -459 3084 -895 
Q 2688 -1331 1869 -1331 
Q 1566 -1331 1297 -1286 
Q 1028 -1241 775 -1147 
L 775 -588 
Q 1028 -725 1275 -790 
Q 1522 -856 1778 -856 
Q 2344 -856 2625 -561 
Q 2906 -266 2906 331 
L 2906 616 
Q 2728 306 2450 153 
Q 2172 0 1784 0 
Q 1141 0 747 490 
Q 353 981 353 1791 
Q 353 2603 747 3093 
Q 1141 3584 1784 3584 
Q 2172 3584 2450 3431 
Q 2728 3278 2906 2969 
L 2906 3500 
L 3481 3500 
L 3481 434 
z
" transform="scale(0.015625)"/>
      <path id="DejaVuSans-f3" d="M 1959 3097 
Q 1497 3097 1228 2736 
Q 959 2375 959 1747 
Q 959 1119 1226 758 
Q 1494 397 1959 397 
Q 2419 397 2687 759 
Q 2956 1122 2956 1747 
Q 2956 2369 2687 2733 
Q 2419 3097 1959 3097 
z
M 1959 3584 
Q 2709 3584 3137 3096 
Q 3566 2609 3566 1747 
Q 3566 888 3137 398 
Q 2709 -91 1959 -91 
Q 1206 -91 779 398 
Q 353 888 353 1747 
Q 353 2609 779 3096 
Q 1206 3584 1959 3584 
z
M 2394 5119 
L 3016 5119 
L 1998 3944 
L 1519 3944 
L 2394 5119 
z
" transform="scale(0.015625)"/>
      <path id="DejaVuSans-72" d="M 2631 2963 
Q 2534 3019 2420 3045 
Q 2306 3072 2169 3072 
Q 1681 3072 1420 2755 
Q 1159 2438 1159 1844 
L 1159 0 
L 581 0 
L 581 3500 
L 1159 3500 
L 1159 2956 
Q 1341 3275 1631 3429 
Q 1922 3584 2338 3584 
Q 2397 3584 2469 3576 
Q 2541 3569 2628 3553 
L 2631 2963 
z
" transform="scale(0.015625)"/>
      <path id="DejaVuSans-6e" d="M 3513 2113 
L 3513 0 
L 2938 0 
L 2938 2094 
Q 2938 2591 2744 2837 
Q 2550 3084 2163 3084 
Q 1697 3084 1428 2787 
Q 1159 2491 1159 1978 
L 1159 0 
L 581 0 
L 581 3500 
L 1159 3500 
L 1159 2956 
Q 1366 3272 1645 3428 
Q 1925 3584 2291 3584 
Q 2894 3584 3203 3211 
Q 3513 2838 3513 2113 
z
" transform="scale(0.015625)"/>
      <path id="DejaVuSans-61" d="M 2194 1759 
Q 1497 1759 1228 1600 
Q 959 1441 959 1056 
Q 959 750 1161 570 
Q 1363 391 1709 391 
Q 2188 391 2477 730 
Q 2766 1069 2766 1631 
L 2766 1759 
L 2194 1759 
z
M 3341 1997 
L 3341 0 
L 2766 0 
L 2766 531 
Q 2569 213 2275 61 
Q 1981 -91 1556 -91 
Q 1019 -91 701 211 
Q 384 513 384 1019 
Q 384 1609 779 1909 
Q 1175 2209 1959 2209 
L 2766 2209 
L 2766 2266 
Q 2766 2663 2505 2880 
Q 2244 3097 1772 3097 
Q 1472 3097 1187 3025 
Q 903 2953 641 2809 
L 641 3341 
Q 956 3463 1253 3523 
Q 1550 3584 1831 3584 
Q 2591 3584 2966 3190 
Q 3341 2797 3341 1997 
z
" transform="scale(0.015625)"/>
      <path id="DejaVuSans-70" d="M 1159 525 
L 1159 -1331 
L 581 -1331 
L 581 3500 
L 1159 3500 
L 1159 2969 
Q 1341 3281 1617 3432 
Q 1894 3584 2278 3584 
Q 2916 3584 3314 3078 
Q 3713 2572 3713 1747 
Q 3713 922 3314 415 
Q 2916 -91 2278 -91 
Q 1894 -91 1617 61 
Q 1341 213 1159 525 
z
M 3116 1747 
Q 3116 2381 2855 2742 
Q 2594 3103 2138 3103 
Q 1681 3103 1420 2742 
Q 1159 2381 1159 1747 
Q 1159 1113 1420 752 
Q 1681 391 2138 391 
Q 2594 391 2855 752 
Q 3116 1113 3116 1747 
z
" transform="scale(0.015625)"/>
      <path id="DejaVuSans-6f" d="M 1959 3097 
Q 1497 3097 1228 2736 
Q 959 2375 959 1747 
Q 959 1119 1226 758 
Q 1494 397 1959 397 
Q 2419 397 2687 759 
Q 2956 1122 2956 1747 
Q 2956 2369 2687 2733 
Q 2419 3097 1959 3097 
z
M 1959 3584 
Q 2709 3584 3137 3096 
Q 3566 2609 3566 1747 
Q 3566 888 3137 398 
Q 2709 -91 1959 -91 
Q 1206 -91 779 398 
Q 353 888 353 1747 
Q 353 2609 779 3096 
Q 1206 3584 1959 3584 
z
" transform="scale(0.015625)"/>
      <path id="DejaVuSans-64" d="M 2906 2969 
L 2906 4863 
L 3481 4863 
L 3481 0 
L 2906 0 
L 2906 525 
Q 2725 213 2448 61 
Q 2172 -91 1784 -91 
Q 1150 -91 751 415 
Q 353 922 353 1747 
Q 353 2572 751 3078 
Q 1150 3584 1784 3584 
Q 2172 3584 2448 3432 
Q 2725 3281 2906 2969 
z
M 947 1747 
Q 947 1113 1208 752 
Q 1469 391 1925 391 
Q 2381 391 2643 752 
Q 2906 1113 2906 1747 
Q 2906 2381 2643 2742 
Q 2381 3103 1925 3103 
Q 1469 3103 1208 2742 
Q 947 2381 947 1747 
z
" transform="scale(0.015625)"/>
      <path id="DejaVuSans-73" d="M 2834 3397 
L 2834 2853 
Q 2591 2978 2328 3040 
Q 2066 3103 1784 3103 
Q 1356 3103 1142 2972 
Q 928 2841 928 2578 
Q 928 2378 1081 2264 
Q 1234 2150 1697 2047 
L 1894 2003 
Q 2506 1872 2764 1633 
Q 3022 1394 3022 966 
Q 3022 478 2636 193 
Q 2250 -91 1575 -91 
Q 1294 -91 989 -36 
Q 684 19 347 128 
L 347 722 
Q 666 556 975 473 
Q 1284 391 1588 391 
Q 1994 391 2212 530 
Q 2431 669 2431 922 
Q 2431 1156 2273 1281 
Q 2116 1406 1581 1522 
L 1381 1569 
Q 847 1681 609 1914 
Q 372 2147 372 2553 
Q 372 3047 722 3315 
Q 1072 3584 1716 3584 
Q 2034 3584 2315 3537 
Q 2597 3491 2834 3397 
z
" transform="scale(0.015625)"/>
      <path id="DejaVuSans-74" d="M 1172 4494 
L 1172 3500 
L 2356 3500 
L 2356 3053 
L 1172 3053 
L 1172 1153 
Q 1172 725 1289 603 
Q 1406 481 1766 481 
L 2356 481 
L 2356 0 
L 1766 0 
Q 1100 0 847 248 
Q 594 497 594 1153 
L 594 3053 
L 172 3053 
L 172 3500 
L 594 3500 
L 594 4494 
L 1172 4494 
z
" transform="scale(0.015625)"/>
      <path id="DejaVuSans-77" d="M 269 3500 
L 844 3500 
L 1563 769 
L 2278 3500 
L 2956 3500 
L 3675 769 
L 4391 3500 
L 4966 3500 
L 4050 0 
L 3372 0 
L 2619 2869 
L 1863 0 
L 1184 0 
L 269 3500 
z
" transform="scale(0.015625)"/>
     </defs>
     <use xlink:href="#DejaVuSans-30" transform="translate(0 0.015625)"/>
     <use xlink:href="#DejaVuSans-2e" transform="translate(63.623047 0.015625)"/>
     <use xlink:href="#DejaVuSans-30" transform="translate(95.410156 0.015625)"/>
     <use xlink:href="#DejaVuSans-37" transform="translate(159.033203 0.015625)"/>
     <use xlink:href="#DejaVuSans-6d" transform="translate(249.715386 0.015625)"/>
     <use xlink:href="#DejaVuSans-20" transform="translate(347.127495 0.015625)"/>
     <use xlink:href="#DejaVuSans-67" transform="translate(378.914604 0.015625)"/>
     <use xlink:href="#DejaVuSans-f3" transform="translate(442.391167 0.015625)"/>
     <use xlink:href="#DejaVuSans-72" transform="translate(503.572808 0.015625)"/>
     <use xlink:href="#DejaVuSans-6e" transform="translate(544.686089 0.015625)"/>
     <use xlink:href="#DejaVuSans-61" transform="translate(608.064995 0.015625)"/>
     <use xlink:href="#DejaVuSans-20" transform="translate(669.344292 0.015625)"/>
     <use xlink:href="#DejaVuSans-70" transform="translate(701.131401 0.015625)"/>
     <use xlink:href="#DejaVuSans-6f" transform="translate(764.607964 0.015625)"/>
     <use xlink:href="#DejaVuSans-64" transform="translate(825.789604 0.015625)"/>
     <use xlink:href="#DejaVuSans-73" transform="translate(889.266167 0.015625)"/>
     <use xlink:href="#DejaVuSans-74" transform="translate(941.365776 0.015625)"/>
     <use xlink:href="#DejaVuSans-61" transform="translate(980.574761 0.015625)"/>
     <use xlink:href="#DejaVuSans-77" transform="translate(1041.854058 0.015625)"/>
     <use xlink:href="#DejaVuSans-61" transform="translate(1123.641167 0.015625)"/>
    </g>
   </g>
   <g id="patch_4">
    <path d="M 550.68137 155.878125 
Q 434.269296 155.878125 317.857222 155.878125 
" style="fill: none; stroke: #000000; stroke-width: 1.5; stroke-linecap: round"/>
    <path d="M 546.68137 153.878125 
L 550.68137 155.878125 
L 546.68137 157.878125 
" style="fill: none; stroke: #000000; stroke-width: 1.5; stroke-linecap: round"/>
    <path d="M 321.857222 157.878125 
L 317.857222 155.878125 
L 321.857222 153.878125 
" style="fill: none; stroke: #000000; stroke-width: 1.5; stroke-linecap: round"/>
   </g>
   <g id="text_3">
    <!-- dolna podstawa = 2$\cdot$h + górna podstawa -->
    <g transform="translate(331.616698 164.278125) scale(0.1 -0.1)">
     <defs>
      <path id="DejaVuSans-6c" d="M 603 4863 
L 1178 4863 
L 1178 0 
L 603 0 
L 603 4863 
z
" transform="scale(0.015625)"/>
      <path id="DejaVuSans-3d" d="M 678 2906 
L 4684 2906 
L 4684 2381 
L 678 2381 
L 678 2906 
z
M 678 1631 
L 4684 1631 
L 4684 1100 
L 678 1100 
L 678 1631 
z
" transform="scale(0.015625)"/>
      <path id="DejaVuSans-32" d="M 1228 531 
L 3431 531 
L 3431 0 
L 469 0 
L 469 531 
Q 828 903 1448 1529 
Q 2069 2156 2228 2338 
Q 2531 2678 2651 2914 
Q 2772 3150 2772 3378 
Q 2772 3750 2511 3984 
Q 2250 4219 1831 4219 
Q 1534 4219 1204 4116 
Q 875 4013 500 3803 
L 500 4441 
Q 881 4594 1212 4672 
Q 1544 4750 1819 4750 
Q 2544 4750 2975 4387 
Q 3406 4025 3406 3419 
Q 3406 3131 3298 2873 
Q 3191 2616 2906 2266 
Q 2828 2175 2409 1742 
Q 1991 1309 1228 531 
z
" transform="scale(0.015625)"/>
      <path id="DejaVuSans-22c5" d="M 684 2619 
L 1344 2619 
L 1344 1825 
L 684 1825 
L 684 2619 
z
" transform="scale(0.015625)"/>
      <path id="DejaVuSans-68" d="M 3513 2113 
L 3513 0 
L 2938 0 
L 2938 2094 
Q 2938 2591 2744 2837 
Q 2550 3084 2163 3084 
Q 1697 3084 1428 2787 
Q 1159 2491 1159 1978 
L 1159 0 
L 581 0 
L 581 4863 
L 1159 4863 
L 1159 2956 
Q 1366 3272 1645 3428 
Q 1925 3584 2291 3584 
Q 2894 3584 3203 3211 
Q 3513 2838 3513 2113 
z
" transform="scale(0.015625)"/>
      <path id="DejaVuSans-2b" d="M 2944 4013 
L 2944 2272 
L 4684 2272 
L 4684 1741 
L 2944 1741 
L 2944 0 
L 2419 0 
L 2419 1741 
L 678 1741 
L 678 2272 
L 2419 2272 
L 2419 4013 
L 2944 4013 
z
" transform="scale(0.015625)"/>
     </defs>
     <use xlink:href="#DejaVuSans-64" transform="translate(0 0.015625)"/>
     <use xlink:href="#DejaVuSans-6f" transform="translate(63.476562 0.015625)"/>
     <use xlink:href="#DejaVuSans-6c" transform="translate(124.658203 0.015625)"/>
     <use xlink:href="#DejaVuSans-6e" transform="translate(152.441406 0.015625)"/>
     <use xlink:href="#DejaVuSans-61" transform="translate(215.820312 0.015625)"/>
     <use xlink:href="#DejaVuSans-20" transform="translate(277.099609 0.015625)"/>
     <use xlink:href="#DejaVuSans-70" transform="translate(308.886719 0.015625)"/>
     <use xlink:href="#DejaVuSans-6f" transform="translate(372.363281 0.015625)"/>
     <use xlink:href="#DejaVuSans-64" transform="translate(433.544922 0.015625)"/>
     <use xlink:href="#DejaVuSans-73" transform="translate(497.021484 0.015625)"/>
     <use xlink:href="#DejaVuSans-74" transform="translate(549.121094 0.015625)"/>
     <use xlink:href="#DejaVuSans-61" transform="translate(588.330078 0.015625)"/>
     <use xlink:href="#DejaVuSans-77" transform="translate(649.609375 0.015625)"/>
     <use xlink:href="#DejaVuSans-61" transform="translate(731.396484 0.015625)"/>
     <use xlink:href="#DejaVuSans-20" transform="translate(792.675781 0.015625)"/>
     <use xlink:href="#DejaVuSans-3d" transform="translate(824.462891 0.015625)"/>
     <use xlink:href="#DejaVuSans-20" transform="translate(908.251953 0.015625)"/>
     <use xlink:href="#DejaVuSans-32" transform="translate(940.039062 0.015625)"/>
     <use xlink:href="#DejaVuSans-22c5" transform="translate(1003.662109 0.015625)"/>
     <use xlink:href="#DejaVuSans-68" transform="translate(1035.449219 0.015625)"/>
     <use xlink:href="#DejaVuSans-20" transform="translate(1098.828125 0.015625)"/>
     <use xlink:href="#DejaVuSans-2b" transform="translate(1130.615234 0.015625)"/>
     <use xlink:href="#DejaVuSans-20" transform="translate(1214.404297 0.015625)"/>
     <use xlink:href="#DejaVuSans-67" transform="translate(1246.191406 0.015625)"/>
     <use xlink:href="#DejaVuSans-f3" transform="translate(1309.667969 0.015625)"/>
     <use xlink:href="#DejaVuSans-72" transform="translate(1370.849609 0.015625)"/>
     <use xlink:href="#DejaVuSans-6e" transform="translate(1411.962891 0.015625)"/>
     <use xlink:href="#DejaVuSans-61" transform="translate(1475.341797 0.015625)"/>
     <use xlink:href="#DejaVuSans-20" transform="translate(1536.621094 0.015625)"/>
     <use xlink:href="#DejaVuSans-70" transform="translate(1568.408203 0.015625)"/>
     <use xlink:href="#DejaVuSans-6f" transform="translate(1631.884766 0.015625)"/>
     <use xlink:href="#DejaVuSans-64" transform="translate(1693.066406 0.015625)"/>
     <use xlink:href="#DejaVuSans-73" transform="translate(1756.542969 0.015625)"/>
     <use xlink:href="#DejaVuSans-74" transform="translate(1808.642578 0.015625)"/>
     <use xlink:href="#DejaVuSans-61" transform="translate(1847.851562 0.015625)"/>
     <use xlink:href="#DejaVuSans-77" transform="translate(1909.130859 0.015625)"/>
     <use xlink:href="#DejaVuSans-61" transform="translate(1990.917969 0.015625)"/>
    </g>
   </g>
   <g id="patch_5">
    <path d="M 775.847658 169.878125 
Q 449.279831 169.878125 122.712004 169.878125 
" style="fill: none; stroke: #000000; stroke-width: 1.5; stroke-linecap: round"/>
    <path d="M 771.847658 167.878125 
L 775.847658 169.878125 
L 771.847658 171.878125 
" style="fill: none; stroke: #000000; stroke-width: 1.5; stroke-linecap: round"/>
    <path d="M 126.712004 171.878125 
L 122.712004 169.878125 
L 126.712004 167.878125 
" style="fill: none; stroke: #000000; stroke-width: 1.5; stroke-linecap: round"/>
   </g>
   <g id="text_4">
    <!-- Długość dna 1.5 m -->
    <g transform="translate(402.254392 178.278125) scale(0.1 -0.1)">
     <defs>
      <path id="DejaVuSans-44" d="M 1259 4147 
L 1259 519 
L 2022 519 
Q 2988 519 3436 956 
Q 3884 1394 3884 2338 
Q 3884 3275 3436 3711 
Q 2988 4147 2022 4147 
L 1259 4147 
z
M 628 4666 
L 1925 4666 
Q 3281 4666 3915 4102 
Q 4550 3538 4550 2338 
Q 4550 1131 3912 565 
Q 3275 0 1925 0 
L 628 0 
L 628 4666 
z
" transform="scale(0.015625)"/>
      <path id="DejaVuSans-142" d="M 622 4863 
L 1197 4863 
L 1197 2981 
L 1588 3263 
L 1825 2931 
L 1197 2491 
L 1197 0 
L 622 0 
L 622 2081 
L 238 1806 
L 6 2138 
L 622 2578 
L 622 4863 
z
" transform="scale(0.015625)"/>
      <path id="DejaVuSans-75" d="M 544 1381 
L 544 3500 
L 1119 3500 
L 1119 1403 
Q 1119 906 1312 657 
Q 1506 409 1894 409 
Q 2359 409 2629 706 
Q 2900 1003 2900 1516 
L 2900 3500 
L 3475 3500 
L 3475 0 
L 2900 0 
L 2900 538 
Q 2691 219 2414 64 
Q 2138 -91 1772 -91 
Q 1169 -91 856 284 
Q 544 659 544 1381 
z
M 1991 3584 
L 1991 3584 
z
" transform="scale(0.015625)"/>
      <path id="DejaVuSans-15b" d="M 2242 5119 
L 2864 5119 
L 1846 3944 
L 1367 3944 
L 2242 5119 
z
M 2834 3397 
L 2834 2853 
Q 2591 2978 2328 3040 
Q 2066 3103 1784 3103 
Q 1356 3103 1142 2972 
Q 928 2841 928 2578 
Q 928 2378 1081 2264 
Q 1234 2150 1697 2047 
L 1894 2003 
Q 2506 1872 2764 1633 
Q 3022 1394 3022 966 
Q 3022 478 2636 193 
Q 2250 -91 1575 -91 
Q 1294 -91 989 -36 
Q 684 19 347 128 
L 347 722 
Q 666 556 975 473 
Q 1284 391 1588 391 
Q 1994 391 2212 530 
Q 2431 669 2431 922 
Q 2431 1156 2273 1281 
Q 2116 1406 1581 1522 
L 1381 1569 
Q 847 1681 609 1914 
Q 372 2147 372 2553 
Q 372 3047 722 3315 
Q 1072 3584 1716 3584 
Q 2034 3584 2315 3537 
Q 2597 3491 2834 3397 
z
" transform="scale(0.015625)"/>
      <path id="DejaVuSans-107" d="M 3122 3366 
L 3122 2828 
Q 2878 2963 2633 3030 
Q 2388 3097 2138 3097 
Q 1578 3097 1268 2742 
Q 959 2388 959 1747 
Q 959 1106 1268 751 
Q 1578 397 2138 397 
Q 2388 397 2633 464 
Q 2878 531 3122 666 
L 3122 134 
Q 2881 22 2623 -34 
Q 2366 -91 2075 -91 
Q 1284 -91 818 406 
Q 353 903 353 1747 
Q 353 2603 823 3093 
Q 1294 3584 2113 3584 
Q 2378 3584 2631 3529 
Q 2884 3475 3122 3366 
z
M 2466 5119 
L 3088 5119 
L 2070 3944 
L 1591 3944 
L 2466 5119 
z
" transform="scale(0.015625)"/>
      <path id="DejaVuSans-31" d="M 794 531 
L 1825 531 
L 1825 4091 
L 703 3866 
L 703 4441 
L 1819 4666 
L 2450 4666 
L 2450 531 
L 3481 531 
L 3481 0 
L 794 0 
L 794 531 
z
" transform="scale(0.015625)"/>
      <path id="DejaVuSans-35" d="M 691 4666 
L 3169 4666 
L 3169 4134 
L 1269 4134 
L 1269 2991 
Q 1406 3038 1543 3061 
Q 1681 3084 1819 3084 
Q 2600 3084 3056 2656 
Q 3513 2228 3513 1497 
Q 3513 744 3044 326 
Q 2575 -91 1722 -91 
Q 1428 -91 1123 -41 
Q 819 9 494 109 
L 494 744 
Q 775 591 1075 516 
Q 1375 441 1709 441 
Q 2250 441 2565 725 
Q 2881 1009 2881 1497 
Q 2881 1984 2565 2268 
Q 2250 2553 1709 2553 
Q 1456 2553 1204 2497 
Q 953 2441 691 2322 
L 691 4666 
z
" transform="scale(0.015625)"/>
     </defs>
     <use xlink:href="#DejaVuSans-44"/>
     <use xlink:href="#DejaVuSans-142" transform="translate(77.001953 0)"/>
     <use xlink:href="#DejaVuSans-75" transform="translate(105.419922 0)"/>
     <use xlink:href="#DejaVuSans-67" transform="translate(168.798828 0)"/>
     <use xlink:href="#DejaVuSans-6f" transform="translate(232.275391 0)"/>
     <use xlink:href="#DejaVuSans-15b" transform="translate(293.457031 0)"/>
     <use xlink:href="#DejaVuSans-107" transform="translate(345.556641 0)"/>
     <use xlink:href="#DejaVuSans-20" transform="translate(400.537109 0)"/>
     <use xlink:href="#DejaVuSans-64" transform="translate(432.324219 0)"/>
     <use xlink:href="#DejaVuSans-6e" transform="translate(495.800781 0)"/>
     <use xlink:href="#DejaVuSans-61" transform="translate(559.179688 0)"/>
     <use xlink:href="#DejaVuSans-20" transform="translate(620.458984 0)"/>
     <use xlink:href="#DejaVuSans-31" transform="translate(652.246094 0)"/>
     <use xlink:href="#DejaVuSans-2e" transform="translate(715.869141 0)"/>
     <use xlink:href="#DejaVuSans-35" transform="translate(747.65625 0)"/>
     <use xlink:href="#DejaVuSans-20" transform="translate(811.279297 0)"/>
     <use xlink:href="#DejaVuSans-6d" transform="translate(843.066406 0)"/>
    </g>
   </g>
   <g id="text_5">
    <!-- $45^\circ$ -->
    <g transform="translate(335.657298 150.278125) scale(0.1 -0.1)">
     <defs>
      <path id="DejaVuSans-34" d="M 2419 4116 
L 825 1625 
L 2419 1625 
L 2419 4116 
z
M 2253 4666 
L 3047 4666 
L 3047 1625 
L 3713 1625 
L 3713 1100 
L 3047 1100 
L 3047 0 
L 2419 0 
L 2419 1100 
L 313 1100 
L 313 1709 
L 2253 4666 
z
" transform="scale(0.015625)"/>
      <path id="DejaVuSans-2218" d="M 2000 2619 
Q 1750 2619 1578 2445 
Q 1406 2272 1406 2022 
Q 1406 1775 1578 1605 
Q 1750 1435 2000 1435 
Q 2250 1435 2422 1605 
Q 2594 1775 2594 2022 
Q 2594 2269 2420 2444 
Q 2247 2619 2000 2619 
z
M 2000 3022 
Q 2200 3022 2384 2945 
Q 2569 2869 2703 2725 
Q 2847 2585 2919 2406 
Q 2991 2228 2991 2022 
Q 2991 1610 2702 1324 
Q 2413 1038 1994 1038 
Q 1572 1038 1290 1319 
Q 1009 1600 1009 2022 
Q 1009 2441 1296 2731 
Q 1584 3022 2000 3022 
z
" transform="scale(0.015625)"/>
     </defs>
     <use xlink:href="#DejaVuSans-34" transform="translate(0 0.09375)"/>
     <use xlink:href="#DejaVuSans-35" transform="translate(63.623047 0.09375)"/>
     <use xlink:href="#DejaVuSans-2218" transform="translate(141.84082 38.375) scale(0.7)"/>
    </g>
   </g>
   <g id="text_6">
    <!-- Rys. poglądowy -->
    <g transform="translate(364.84875 16.318125) scale(0.12 -0.12)">
     <defs>
      <path id="DejaVuSans-52" d="M 2841 2188 
Q 3044 2119 3236 1894 
Q 3428 1669 3622 1275 
L 4263 0 
L 3584 0 
L 2988 1197 
Q 2756 1666 2539 1819 
Q 2322 1972 1947 1972 
L 1259 1972 
L 1259 0 
L 628 0 
L 628 4666 
L 2053 4666 
Q 2853 4666 3247 4331 
Q 3641 3997 3641 3322 
Q 3641 2881 3436 2590 
Q 3231 2300 2841 2188 
z
M 1259 4147 
L 1259 2491 
L 2053 2491 
Q 2509 2491 2742 2702 
Q 2975 2913 2975 3322 
Q 2975 3731 2742 3939 
Q 2509 4147 2053 4147 
L 1259 4147 
z
" transform="scale(0.015625)"/>
      <path id="DejaVuSans-79" d="M 2059 -325 
Q 1816 -950 1584 -1140 
Q 1353 -1331 966 -1331 
L 506 -1331 
L 506 -850 
L 844 -850 
Q 1081 -850 1212 -737 
Q 1344 -625 1503 -206 
L 1606 56 
L 191 3500 
L 800 3500 
L 1894 763 
L 2988 3500 
L 3597 3500 
L 2059 -325 
z
" transform="scale(0.015625)"/>
      <path id="DejaVuSans-105" d="M 2194 1759 
Q 1497 1759 1228 1600 
Q 959 1441 959 1056 
Q 959 750 1161 570 
Q 1363 391 1709 391 
Q 2188 391 2477 730 
Q 2766 1069 2766 1631 
L 2766 1759 
L 2194 1759 
z
M 3341 1997 
L 3341 0 
L 2766 0 
L 2766 531 
Q 2569 213 2275 61 
Q 1981 -91 1556 -91 
Q 1019 -91 701 211 
Q 384 513 384 1019 
Q 384 1609 779 1909 
Q 1175 2209 1959 2209 
L 2766 2209 
L 2766 2266 
Q 2766 2663 2505 2880 
Q 2244 3097 1772 3097 
Q 1472 3097 1187 3025 
Q 903 2953 641 2809 
L 641 3341 
Q 956 3463 1253 3523 
Q 1550 3584 1831 3584 
Q 2591 3584 2966 3190 
Q 3341 2797 3341 1997 
z
M 2775 0 
L 3147 0 
Q 3006 -191 2939 -328 
Q 2872 -466 2872 -563 
Q 2872 -706 2958 -778 
Q 3044 -850 3213 -850 
Q 3313 -850 3409 -826 
Q 3506 -803 3603 -756 
L 3603 -1172 
Q 3484 -1203 3378 -1218 
Q 3272 -1234 3178 -1234 
Q 2797 -1234 2617 -1098 
Q 2438 -963 2438 -672 
Q 2438 -522 2520 -358 
Q 2603 -194 2775 0 
z
" transform="scale(0.015625)"/>
     </defs>
     <use xlink:href="#DejaVuSans-52"/>
     <use xlink:href="#DejaVuSans-79" transform="translate(63.982422 0)"/>
     <use xlink:href="#DejaVuSans-73" transform="translate(123.162109 0)"/>
     <use xlink:href="#DejaVuSans-2e" transform="translate(175.261719 0)"/>
     <use xlink:href="#DejaVuSans-20" transform="translate(207.048828 0)"/>
     <use xlink:href="#DejaVuSans-70" transform="translate(238.835938 0)"/>
     <use xlink:href="#DejaVuSans-6f" transform="translate(302.3125 0)"/>
     <use xlink:href="#DejaVuSans-67" transform="translate(363.494141 0)"/>
     <use xlink:href="#DejaVuSans-6c" transform="translate(426.970703 0)"/>
     <use xlink:href="#DejaVuSans-105" transform="translate(454.753906 0)"/>
     <use xlink:href="#DejaVuSans-64" transform="translate(516.033203 0)"/>
     <use xlink:href="#DejaVuSans-6f" transform="translate(579.509766 0)"/>
     <use xlink:href="#DejaVuSans-77" transform="translate(640.691406 0)"/>
     <use xlink:href="#DejaVuSans-79" transform="translate(722.478516 0)"/>
    </g>
   </g>
  </g>
 </g>
 <defs>
  <clipPath id="pa1b80bb636">
   <rect x="7.2" y="22.318125" width="809.1" height="166.32"/>
  </clipPath>
 </defs>
</svg>
