<?xml version="1.0" encoding="utf-8" standalone="no"?>
<!DOCTYPE svg PUBLIC "-//W3C//DTD SVG 1.1//EN"
  "http://www.w3.org/Graphics/SVG/1.1/DTD/svg11.dtd">
<svg xmlns:xlink="http://www.w3.org/1999/xlink" width="823.5pt" height="180.72pt" viewBox="0 0 823.5 180.72" xmlns="http://www.w3.org/2000/svg" version="1.1">
 <metadata>
  <rdf:RDF xmlns:dc="http://purl.org/dc/elements/1.1/" xmlns:cc="http://creativecommons.org/ns#" xmlns:rdf="http://www.w3.org/1999/02/22-rdf-syntax-ns#">
   <cc:Work>
    <dc:type rdf:resource="http://purl.org/dc/dcmitype/StillImage"/>
    <dc:date>2025-11-26T15:57:51.378750</dc:date>
    <dc:format>image/svg+xml</dc:format>
    <dc:creator>
     <cc:Agent>
      <dc:title>Matplotlib v3.10.6, https://matplotlib.org/</dc:title>
     </cc:Agent>
    </dc:creator>
   </cc:Work>
  </rdf:RDF>
 </metadata>
 <defs>
  <style type="text/css">*{stroke-linejoin: round; stroke-linecap: butt}</style>
 </defs>
 <g id="figure_1">
  <g id="patch_1">
   <path d="M 0 180.72 
L 823.5 180.72 
L 823.5 0 
L 0 0 
z
" style="fill: #ffffff"/>
  </g>
  <g id="axes_1">
   <g id="FillBetweenPolyCollection_1">
    <defs>
     <path id="maa392cf58f" d="M 43.977273 -14.76 
L 43.977273 -165.96 
L 58.988404 -165.96 
L 73.999536 -165.96 
L 89.010668 -165.96 
L 104.0218 -165.96 
L 119.032931 -22.717895 
L 134.044063 -22.717895 
L 149.055195 -22.717895 
L 164.066327 -22.717895 
L 179.077458 -22.717895 
L 194.08859 -22.717895 
L 209.099722 -22.717895 
L 224.110853 -22.717895 
L 239.121985 -22.717895 
L 254.133117 -22.717895 
L 269.144249 -22.717895 
L 284.15538 -22.717895 
L 299.166512 -22.717895 
L 314.177644 -22.717895 
L 329.188776 -22.717895 
L 344.199907 -22.717895 
L 359.211039 -22.717895 
L 374.222171 -22.717895 
L 389.233302 -22.717895 
L 404.244434 -22.717895 
L 419.255566 -22.717895 
L 434.266698 -22.717895 
L 449.277829 -22.717895 
L 464.288961 -22.717895 
L 479.300093 -22.717895 
L 494.311224 -22.717895 
L 509.322356 -22.717895 
L 524.333488 -22.717895 
L 539.34462 -22.717895 
L 554.355751 -22.717895 
L 569.366883 -22.717895 
L 584.378015 -22.717895 
L 599.389147 -22.717895 
L 614.400278 -22.717895 
L 629.41141 -22.717895 
L 644.422542 -22.717895 
L 659.433673 -22.717895 
L 674.444805 -22.717895 
L 689.455937 -22.717895 
L 704.467069 -22.717895 
L 719.4782 -22.717895 
L 734.489332 -22.717895 
L 749.500464 -22.717895 
L 764.511596 -22.717895 
L 779.522727 -22.717895 
L 779.522727 -14.76 
L 779.522727 -14.76 
L 764.511596 -14.76 
L 749.500464 -14.76 
L 734.489332 -14.76 
L 719.4782 -14.76 
L 704.467069 -14.76 
L 689.455937 -14.76 
L 674.444805 -14.76 
L 659.433673 -14.76 
L 644.422542 -14.76 
L 629.41141 -14.76 
L 614.400278 -14.76 
L 599.389147 -14.76 
L 584.378015 -14.76 
L 569.366883 -14.76 
L 554.355751 -14.76 
L 539.34462 -14.76 
L 524.333488 -14.76 
L 509.322356 -14.76 
L 494.311224 -14.76 
L 479.300093 -14.76 
L 464.288961 -14.76 
L 449.277829 -14.76 
L 434.266698 -14.76 
L 419.255566 -14.76 
L 404.244434 -14.76 
L 389.233302 -14.76 
L 374.222171 -14.76 
L 359.211039 -14.76 
L 344.199907 -14.76 
L 329.188776 -14.76 
L 314.177644 -14.76 
L 299.166512 -14.76 
L 284.15538 -14.76 
L 269.144249 -14.76 
L 254.133117 -14.76 
L 239.121985 -14.76 
L 224.110853 -14.76 
L 209.099722 -14.76 
L 194.08859 -14.76 
L 179.077458 -14.76 
L 164.066327 -14.76 
L 149.055195 -14.76 
L 134.044063 -14.76 
L 119.032931 -14.76 
L 104.0218 -14.76 
L 89.010668 -14.76 
L 73.999536 -14.76 
L 58.988404 -14.76 
L 43.977273 -14.76 
z
" style="stroke: #a52a2a; stroke-opacity: 0.5"/>
    </defs>
    <g clip-path="url(#pe68f5085f4)">
     <use xlink:href="#maa392cf58f" x="0" y="180.72" style="fill: #a52a2a; fill-opacity: 0.5; stroke: #a52a2a; stroke-opacity: 0.5"/>
    </g>
   </g>
   <g id="patch_2">
    <path d="M 119.032931 158.002105 
L 116.106289 155.614737 
L 118.974399 155.614737 
L 118.974399 78.423158 
L 119.091464 78.423158 
L 119.091464 155.614737 
L 121.959574 155.614737 
z
" clip-path="url(#pe68f5085f4)" style="fill: #a52a2a; stroke: #a52a2a; stroke-linejoin: miter"/>
   </g>
   <g id="FillBetweenPolyCollection_2">
    <defs>
     <path id="m3d79598cfe" d="M 43.977273 -165.96 
L 43.977273 -124.726923 
L 58.988404 -125.455076 
L 73.999536 -125.93364 
L 89.010668 -126.154757 
L 104.0218 -126.114796 
L 119.032931 -125.814413 
L 134.044063 -125.258541 
L 149.055195 -124.456306 
L 164.066327 -123.420882 
L 179.077458 -122.169271 
L 194.08859 -120.722023 
L 209.099722 -119.102903 
L 224.110853 -117.338496 
L 239.121985 -115.457774 
L 254.133117 -113.491618 
L 269.144249 -111.472312 
L 284.15538 -109.433014 
L 299.166512 -107.407209 
L 314.177644 -105.42816 
L 329.188776 -103.528364 
L 344.199907 -101.739014 
L 359.211039 -100.089492 
L 374.222171 -98.606883 
L 389.233302 -97.315532 
L 404.244434 -96.236642 
L 419.255566 -95.387928 
L 434.266698 -94.783328 
L 449.277829 -94.432767 
L 464.288961 -94.342003 
L 479.300093 -94.512525 
L 494.311224 -94.941534 
L 509.322356 -95.621986 
L 524.333488 -96.542707 
L 539.34462 -97.688578 
L 554.355751 -99.040786 
L 569.366883 -100.577127 
L 584.378015 -102.272374 
L 599.389147 -104.098691 
L 614.400278 -106.02609 
L 629.41141 -108.022923 
L 644.422542 -110.056403 
L 659.433673 -112.093139 
L 674.444805 -114.099689 
L 689.455937 -116.043105 
L 704.467069 -117.891475 
L 719.4782 -119.614451 
L 734.489332 -121.183741 
L 749.500464 -122.573577 
L 764.511596 -123.761137 
L 779.522727 -124.726923 
L 779.522727 -22.717895 
L 779.522727 -22.717895 
L 764.511596 -22.717895 
L 749.500464 -22.717895 
L 734.489332 -22.717895 
L 719.4782 -22.717895 
L 704.467069 -22.717895 
L 689.455937 -22.717895 
L 674.444805 -22.717895 
L 659.433673 -22.717895 
L 644.422542 -22.717895 
L 629.41141 -22.717895 
L 614.400278 -22.717895 
L 599.389147 -22.717895 
L 584.378015 -22.717895 
L 569.366883 -22.717895 
L 554.355751 -22.717895 
L 539.34462 -22.717895 
L 524.333488 -22.717895 
L 509.322356 -22.717895 
L 494.311224 -22.717895 
L 479.300093 -22.717895 
L 464.288961 -22.717895 
L 449.277829 -22.717895 
L 434.266698 -22.717895 
L 419.255566 -22.717895 
L 404.244434 -22.717895 
L 389.233302 -22.717895 
L 374.222171 -22.717895 
L 359.211039 -22.717895 
L 344.199907 -22.717895 
L 329.188776 -22.717895 
L 314.177644 -22.717895 
L 299.166512 -22.717895 
L 284.15538 -22.717895 
L 269.144249 -22.717895 
L 254.133117 -22.717895 
L 239.121985 -22.717895 
L 224.110853 -22.717895 
L 209.099722 -22.717895 
L 194.08859 -22.717895 
L 179.077458 -22.717895 
L 164.066327 -22.717895 
L 149.055195 -22.717895 
L 134.044063 -22.717895 
L 119.032931 -22.717895 
L 104.0218 -165.96 
L 89.010668 -165.96 
L 73.999536 -165.96 
L 58.988404 -165.96 
L 43.977273 -165.96 
z
" style="stroke: #0000ff; stroke-opacity: 0.1"/>
    </defs>
    <g clip-path="url(#pe68f5085f4)">
     <use xlink:href="#m3d79598cfe" x="0" y="180.72" style="fill: #0000ff; fill-opacity: 0.1; stroke: #0000ff; stroke-opacity: 0.1"/>
    </g>
   </g>
   <g id="patch_3">
    <path d="M 194.08859 59.997977 
L 197.015232 62.385345 
L 194.147123 62.385345 
L 194.147123 78.423158 
L 194.030057 78.423158 
L 194.030057 62.385345 
L 191.161948 62.385345 
z
" clip-path="url(#pe68f5085f4)" style="fill: #0000ff; stroke: #0000ff; stroke-linejoin: miter"/>
   </g>
   <g id="patch_4">
    <path d="M 269.144249 69.247688 
L 272.070891 71.635056 
L 269.202781 71.635056 
L 269.202781 78.423158 
L 269.085716 78.423158 
L 269.085716 71.635056 
L 266.217606 71.635056 
z
" clip-path="url(#pe68f5085f4)" style="stroke: #000000; stroke-linejoin: miter"/>
   </g>
   <g id="patch_5">
    <path d="M 269.144249 158.002105 
L 266.217606 155.614737 
L 269.085716 155.614737 
L 269.085716 78.423158 
L 269.202781 78.423158 
L 269.202781 155.614737 
L 272.070891 155.614737 
z
" clip-path="url(#pe68f5085f4)" style="stroke: #000000; stroke-linejoin: miter"/>
   </g>
   <g id="line2d_1">
    <path d="M 43.977273 78.423158 
L 58.988404 78.423158 
L 73.999536 78.423158 
L 89.010668 78.423158 
L 104.0218 78.423158 
L 119.032931 78.423158 
L 134.044063 78.423158 
L 149.055195 78.423158 
L 164.066327 78.423158 
L 179.077458 78.423158 
L 194.08859 78.423158 
L 209.099722 78.423158 
L 224.110853 78.423158 
L 239.121985 78.423158 
L 254.133117 78.423158 
L 269.144249 78.423158 
L 284.15538 78.423158 
L 299.166512 78.423158 
L 314.177644 78.423158 
L 329.188776 78.423158 
L 344.199907 78.423158 
L 359.211039 78.423158 
L 374.222171 78.423158 
L 389.233302 78.423158 
L 404.244434 78.423158 
L 419.255566 78.423158 
L 434.266698 78.423158 
L 449.277829 78.423158 
L 464.288961 78.423158 
L 479.300093 78.423158 
L 494.311224 78.423158 
L 509.322356 78.423158 
L 524.333488 78.423158 
L 539.34462 78.423158 
L 554.355751 78.423158 
L 569.366883 78.423158 
L 584.378015 78.423158 
L 599.389147 78.423158 
L 614.400278 78.423158 
L 629.41141 78.423158 
L 644.422542 78.423158 
L 659.433673 78.423158 
L 674.444805 78.423158 
L 689.455937 78.423158 
L 704.467069 78.423158 
L 719.4782 78.423158 
L 734.489332 78.423158 
L 749.500464 78.423158 
L 764.511596 78.423158 
L 779.522727 78.423158 
" clip-path="url(#pe68f5085f4)" style="fill: none; stroke-dasharray: 5.55,2.4; stroke-dashoffset: 0; stroke: #000000; stroke-width: 1.5"/>
   </g>
   <g id="text_1">
    <!--  $b$ -->
    <g style="fill: #a52a2a" transform="translate(119.032931 126.170526) scale(0.1 -0.1)">
     <defs>
      <path id="DejaVuSans-20" transform="scale(0.015625)"/>
      <path id="DejaVuSans-Oblique-62" d="M 3169 2138 
Q 3169 2591 2961 2847 
Q 2753 3103 2388 3103 
Q 2122 3103 1889 2973 
Q 1656 2844 1484 2597 
Q 1303 2338 1198 1995 
Q 1094 1653 1094 1313 
Q 1094 881 1298 636 
Q 1503 391 1863 391 
Q 2134 391 2365 517 
Q 2597 644 2772 891 
Q 2950 1147 3059 1487 
Q 3169 1828 3169 2138 
z
M 1381 2969 
Q 1594 3256 1914 3420 
Q 2234 3584 2584 3584 
Q 3122 3584 3439 3221 
Q 3756 2859 3756 2241 
Q 3756 1734 3570 1259 
Q 3384 784 3041 416 
Q 2816 172 2522 40 
Q 2228 -91 1906 -91 
Q 1566 -91 1316 65 
Q 1066 222 909 531 
L 806 0 
L 231 0 
L 1178 4863 
L 1753 4863 
L 1381 2969 
z
" transform="scale(0.015625)"/>
     </defs>
     <use xlink:href="#DejaVuSans-20" transform="translate(0 0.015625)"/>
     <use xlink:href="#DejaVuSans-Oblique-62" transform="translate(31.787109 0.015625)"/>
    </g>
   </g>
   <g id="text_2">
    <!--  $\zeta$ -->
    <g style="fill: #0000ff" transform="translate(194.08859 75.913766) scale(0.1 -0.1)">
     <defs>
      <path id="DejaVuSans-Oblique-3b6" d="M 1966 397 
Q 2378 394 2578 159 
Q 2794 -88 2722 -463 
Q 2650 -822 2372 -1072 
Q 2069 -1344 1559 -1344 
Q 1606 -1109 1650 -872 
Q 1863 -888 2022 -750 
Q 2144 -641 2166 -525 
Q 2197 -359 2125 -222 
Q 2050 -91 1872 -91 
Q -22 -91 316 1669 
Q 616 3206 2609 4284 
L 947 4284 
L 1059 4863 
L 3778 4863 
L 3666 4284 
Q 1181 3147 894 1669 
Q 647 397 1966 397 
z
" transform="scale(0.015625)"/>
     </defs>
     <use xlink:href="#DejaVuSans-20" transform="translate(0 0.015625)"/>
     <use xlink:href="#DejaVuSans-Oblique-3b6" transform="translate(31.787109 0.015625)"/>
    </g>
   </g>
   <g id="text_3">
    <!--  $h$ -->
    <g transform="translate(269.144249 110.254737) scale(0.1 -0.1)">
     <defs>
      <path id="DejaVuSans-Oblique-68" d="M 3566 2113 
L 3156 0 
L 2578 0 
L 2988 2091 
Q 3016 2238 3031 2350 
Q 3047 2463 3047 2528 
Q 3047 2791 2881 2937 
Q 2716 3084 2419 3084 
Q 1956 3084 1617 2771 
Q 1278 2459 1178 1941 
L 800 0 
L 225 0 
L 1172 4863 
L 1747 4863 
L 1375 2950 
Q 1594 3244 1934 3414 
Q 2275 3584 2650 3584 
Q 3113 3584 3367 3334 
Q 3622 3084 3622 2631 
Q 3622 2519 3608 2391 
Q 3594 2263 3566 2113 
z
" transform="scale(0.015625)"/>
     </defs>
     <use xlink:href="#DejaVuSans-20" transform="translate(0 0.015625)"/>
     <use xlink:href="#DejaVuSans-Oblique-68" transform="translate(31.787109 0.015625)"/>
    </g>
   </g>
   <g id="legend_1">
    <g id="patch_6">
     <path d="M 379.6 113.888125 
L 443.9 113.888125 
Q 445.9 113.888125 445.9 111.888125 
L 445.9 68.831875 
Q 445.9 66.831875 443.9 66.831875 
L 379.6 66.831875 
Q 377.6 66.831875 377.6 68.831875 
L 377.6 111.888125 
Q 377.6 113.888125 379.6 113.888125 
z
" style="fill: #ffffff; opacity: 0.8; stroke: #cccccc; stroke-linejoin: miter"/>
    </g>
    <g id="patch_7">
     <path d="M 381.6 78.430313 
L 401.6 78.430313 
L 401.6 71.430313 
L 381.6 71.430313 
z
" style="fill: #a52a2a; fill-opacity: 0.5; stroke: #a52a2a; stroke-opacity: 0.5; stroke-linejoin: miter"/>
    </g>
    <g id="text_4">
     <!-- $z=-$$b$ -->
     <g transform="translate(409.6 78.430313) scale(0.1 -0.1)">
      <defs>
       <path id="DejaVuSans-Oblique-7a" d="M 744 3500 
L 3475 3500 
L 3372 2975 
L 738 459 
L 2913 459 
L 2822 0 
L -19 0 
L 84 525 
L 2719 3041 
L 653 3041 
L 744 3500 
z
" transform="scale(0.015625)"/>
       <path id="DejaVuSans-3d" d="M 678 2906 
L 4684 2906 
L 4684 2381 
L 678 2381 
L 678 2906 
z
M 678 1631 
L 4684 1631 
L 4684 1100 
L 678 1100 
L 678 1631 
z
" transform="scale(0.015625)"/>
       <path id="DejaVuSans-2212" d="M 678 2272 
L 4684 2272 
L 4684 1741 
L 678 1741 
L 678 2272 
z
" transform="scale(0.015625)"/>
      </defs>
      <use xlink:href="#DejaVuSans-Oblique-7a" transform="translate(0 0.015625)"/>
      <use xlink:href="#DejaVuSans-3d" transform="translate(71.972656 0.015625)"/>
      <use xlink:href="#DejaVuSans-2212" transform="translate(175.244141 0.015625)"/>
      <use xlink:href="#DejaVuSans-Oblique-62" transform="translate(259.033203 0.015625)"/>
     </g>
    </g>
    <g id="patch_8">
     <path d="M 381.6 93.11 
L 401.6 93.11 
L 401.6 86.11 
L 381.6 86.11 
z
" style="fill: #0000ff; fill-opacity: 0.1; stroke: #0000ff; stroke-opacity: 0.1; stroke-linejoin: miter"/>
    </g>
    <g id="text_5">
     <!-- $z=$$\zeta$ -->
     <g transform="translate(409.6 93.11) scale(0.1 -0.1)">
      <use xlink:href="#DejaVuSans-Oblique-7a" transform="translate(0 0.015625)"/>
      <use xlink:href="#DejaVuSans-3d" transform="translate(71.972656 0.015625)"/>
      <use xlink:href="#DejaVuSans-Oblique-3b6" transform="translate(175.244141 0.015625)"/>
     </g>
    </g>
    <g id="line2d_2">
     <path d="M 381.6 104.308438 
L 391.6 104.308438 
L 401.6 104.308438 
" style="fill: none; stroke-dasharray: 5.55,2.4; stroke-dashoffset: 0; stroke: #000000; stroke-width: 1.5"/>
    </g>
    <g id="text_6">
     <!-- $z=0$ -->
     <g transform="translate(409.6 107.808438) scale(0.1 -0.1)">
      <defs>
       <path id="DejaVuSans-30" d="M 2034 4250 
Q 1547 4250 1301 3770 
Q 1056 3291 1056 2328 
Q 1056 1369 1301 889 
Q 1547 409 2034 409 
Q 2525 409 2770 889 
Q 3016 1369 3016 2328 
Q 3016 3291 2770 3770 
Q 2525 4250 2034 4250 
z
M 2034 4750 
Q 2819 4750 3233 4129 
Q 3647 3509 3647 2328 
Q 3647 1150 3233 529 
Q 2819 -91 2034 -91 
Q 1250 -91 836 529 
Q 422 1150 422 2328 
Q 422 3509 836 4129 
Q 1250 4750 2034 4750 
z
" transform="scale(0.015625)"/>
      </defs>
      <use xlink:href="#DejaVuSans-Oblique-7a" transform="translate(0 0.78125)"/>
      <use xlink:href="#DejaVuSans-3d" transform="translate(71.972656 0.78125)"/>
      <use xlink:href="#DejaVuSans-30" transform="translate(175.244141 0.78125)"/>
     </g>
    </g>
   </g>
  </g>
 </g>
 <defs>
  <clipPath id="pe68f5085f4">
   <rect x="7.2" y="7.2" width="809.1" height="166.32"/>
  </clipPath>
 </defs>
</svg>
